<svg width="18" height="18" viewBox="0 0 18 18" fill="none" xmlns="http://www.w3.org/2000/svg">
<g clip-path="url(#clip0_26308_5043)">
<path d="M12.1803 5.82007L10.8273 9.87832C10.7537 10.0993 10.6296 10.3 10.4649 10.4647C10.3003 10.6294 10.0995 10.7534 9.87856 10.8271L5.82031 12.1801L7.17331 8.12182C7.24695 7.90088 7.37102 7.70012 7.53569 7.53545C7.70037 7.37077 7.90113 7.24671 8.12206 7.17307L12.1803 5.82007Z" stroke="#5BEBCD" stroke-width="1.3125" stroke-linecap="round" stroke-linejoin="round"/>
<path d="M9 16.5C13.1421 16.5 16.5 13.1421 16.5 9C16.5 4.85786 13.1421 1.5 9 1.5C4.85786 1.5 1.5 4.85786 1.5 9C1.5 13.1421 4.85786 16.5 9 16.5Z" stroke="#5BEBCD" stroke-width="1.3125" stroke-linecap="round" stroke-linejoin="round"/>
</g>
<defs>
<clipPath id="clip0_26308_5043">
<rect width="18" height="18" fill="white"/>
</clipPath>
</defs>
</svg>
